HIERARCHY
ROOT Hips
{
	OFFSET 0.000000 89.005402 0.000000
	CHANNELS 6 Xposition Yposition Zposition Xrotation Yrotation Zrotation
	JOINT Spine
	{
		OFFSET 0.116900 10.681000 0.373400
		CHANNELS 3 Xrotation Yrotation Zrotation
		JOINT Spine1
		{
			OFFSET 0.000000 13.840401 0.053500
			CHANNELS 3 Xrotation Yrotation Zrotation
			JOINT Spine2
			{
				OFFSET 0.000000 14.712700 -0.366200
				CHANNELS 3 Xrotation Yrotation Zrotation
				JOINT Neck
				{
					OFFSET 0.000000 35.415497 -3.314200
					CHANNELS 3 Xrotation Yrotation Zrotation
					JOINT Head
					{
						OFFSET 0.000000 16.899200 1.218300
						CHANNELS 3 Xrotation Yrotation Zrotation
						JOINT HeadTop_End
						{
							OFFSET 0.000000 22.206207 2.192500
							CHANNELS 3 Xrotation Yrotation Zrotation
							End Site
							{
								OFFSET 0.000000 22.314178 0.000000
							}
						}
					}
				}
				JOINT LeftShoulder
				{
					OFFSET 12.896400 26.716293 -4.548400
					CHANNELS 3 Xrotation Yrotation Zrotation
					JOINT LeftArm
					{
						OFFSET 19.027000 -4.857010 -1.718400
						CHANNELS 3 Xrotation Yrotation Zrotation
						JOINT LeftForeArm
						{
							OFFSET 24.179897 0.000000 0.000000
							CHANNELS 3 Xrotation Yrotation Zrotation
							JOINT LeftHand
							{
								OFFSET 27.156403 0.000000 0.000000
								CHANNELS 3 Xrotation Yrotation Zrotation
								JOINT LeftHandIndex1
								{
									OFFSET 16.441200 0.000000 0.000000
									CHANNELS 3 Xrotation Yrotation Zrotation
									JOINT LeftHandIndex2
									{
										OFFSET 4.821899 0.000000 0.000000
										CHANNELS 3 Xrotation Yrotation Zrotation
										JOINT LeftHandIndex3
										{
											OFFSET 6.386497 0.000000 0.000000
											CHANNELS 3 Xrotation Yrotation Zrotation
											JOINT LeftHandIndex4
											{
												OFFSET 5.188988 0.000000 0.000000
												CHANNELS 3 Xrotation Yrotation Zrotation
												End Site
												{
													OFFSET -0.178703 5.185913 0.000177
												}
											}
										}
									}
								}
								JOINT LeftHandThumb1
								{
									OFFSET 6.534897 -5.032593 5.900300
									CHANNELS 3 Xrotation Yrotation Zrotation
									JOINT LeftHandThumb2
									{
										OFFSET 3.818176 -2.204422 2.204423
										CHANNELS 3 Xrotation Yrotation Zrotation
										JOINT LeftHandThumb3
										{
											OFFSET 3.252098 -1.877594 1.877601
											CHANNELS 3 Xrotation Yrotation Zrotation
											JOINT LeftHandThumb4
											{
												OFFSET 5.251778 -3.032120 3.032117
												CHANNELS 3 Xrotation Yrotation Zrotation
												End Site
												{
													OFFSET 0.000023 6.780014 0.000000
												}
											}
										}
									}
								}
							}
						}
					}
				}
				JOINT RightShoulder
				{
					OFFSET -12.896300 26.716293 -4.548400
					CHANNELS 3 Xrotation Yrotation Zrotation
					JOINT RightArm
					{
						OFFSET -19.027000 -4.857010 -1.718400
						CHANNELS 3 Xrotation Yrotation Zrotation
						JOINT RightForeArm
						{
							OFFSET -24.179897 0.000000 0.000000
							CHANNELS 3 Xrotation Yrotation Zrotation
							JOINT RightHand
							{
								OFFSET -27.156403 0.000000 0.000000
								CHANNELS 3 Xrotation Yrotation Zrotation
								JOINT RightHandThumb1
								{
									OFFSET -6.591202 -4.852203 5.988100
									CHANNELS 3 Xrotation Yrotation Zrotation
									JOINT RightHandThumb2
									{
										OFFSET -3.818176 -2.204422 2.204423
										CHANNELS 3 Xrotation Yrotation Zrotation
										JOINT RightHandThumb3
										{
											OFFSET -3.252098 -1.877594 1.877601
											CHANNELS 3 Xrotation Yrotation Zrotation
											JOINT RightHandThumb4
											{
												OFFSET -5.251778 -3.032120 3.032117
												CHANNELS 3 Xrotation Yrotation Zrotation
												End Site
												{
													OFFSET -0.000023 6.780014 0.000000
												}
											}
										}
									}
								}
								JOINT RightHandIndex1
								{
									OFFSET -16.029404 0.000000 0.000000
									CHANNELS 3 Xrotation Yrotation Zrotation
									JOINT RightHandIndex2
									{
										OFFSET -5.213303 0.000000 0.000000
										CHANNELS 3 Xrotation Yrotation Zrotation
										JOINT RightHandIndex3
										{
											OFFSET -6.386528 0.000000 0.000000
											CHANNELS 3 Xrotation Yrotation Zrotation
											JOINT RightHandIndex4
											{
												OFFSET -5.189026 0.000000 0.000000
												CHANNELS 3 Xrotation Yrotation Zrotation
												End Site
												{
													OFFSET 0.236702 5.183624 0.001972
												}
											}
										}
									}
								}
							}
						}
					}
				}
			}
		}
	}
	JOINT LeftUpLeg
	{
		OFFSET 14.073000 -7.904099 -1.463000
		CHANNELS 3 Xrotation Yrotation Zrotation
		JOINT LeftLeg
		{
			OFFSET -0.109806 -34.073280 4.093200
			CHANNELS 3 Xrotation Yrotation Zrotation
			JOINT LeftFoot
			{
				OFFSET 0.109806 -29.899420 -6.319000
				CHANNELS 3 Xrotation Yrotation Zrotation
				JOINT LeftToeBase
				{
					OFFSET 1.551100 -14.988700 20.535801
					CHANNELS 3 Xrotation Yrotation Zrotation
					JOINT LeftToe_End
					{
						OFFSET 0.221200 0.570800 13.248301
						CHANNELS 3 Xrotation Yrotation Zrotation
						End Site
						{
							OFFSET 0.000000 13.262435 0.000000
						}
					}
				}
			}
		}
	}
	JOINT RightUpLeg
	{
		OFFSET -13.839300 -7.904099 -1.463000
		CHANNELS 3 Xrotation Yrotation Zrotation
		JOINT RightLeg
		{
			OFFSET 0.109694 -34.073219 4.093300
			CHANNELS 3 Xrotation Yrotation Zrotation
			JOINT RightFoot
			{
				OFFSET -0.109694 -29.899384 -6.319200
				CHANNELS 3 Xrotation Yrotation Zrotation
				JOINT RightToeBase
				{
					OFFSET -1.551100 -14.988700 20.535801
					CHANNELS 3 Xrotation Yrotation Zrotation
					JOINT RightToe_End
					{
						OFFSET -0.221200 0.570900 13.248299
						CHANNELS 3 Xrotation Yrotation Zrotation
						End Site
						{
							OFFSET 0.000000 13.262440 0.000000
						}
					}
				}
			}
		}
	}
}
MOTION
Frames: 4
Frame Time: 0.033333
-0.926922 68.496132 4.214439 27.076311 -32.382863 12.530633 30.339164 0.114109 -5.490978 -1.865079 -5.162192 1.378192 -1.486025 -5.055338 2.054539 -9.357382 19.405227 -0.785730 -18.952458 29.094471 -2.222768 -0.000001 0.000000 0.000001 12.756449 -20.495489 22.157547 -33.805492 -2.267290 -6.625003 -26.532370 -51.270538 1.204747 -1.913643 -0.227210 11.361028 13.094278 -1.389812 11.525517 -0.167568 0.314878 -31.105559 -0.145453 0.306909 -32.256275 -0.000001 -0.000000 -0.000000 -4.212061 -7.549017 8.222283 3.478467 20.077374 -1.638309 0.824487 1.236995 2.623807 0.000004 -0.000000 -0.000000 9.101656 4.638643 5.881122 -94.859614 -39.150484 -17.128380 62.484114 140.138188 -38.621161 0.196607 14.675669 -19.657640 -2.894532 9.661517 -10.609790 2.504798 -17.521047 2.666688 3.342455 -13.253708 -8.262791 0.000002 0.000000 0.000002 19.365384 11.464554 -14.237353 -0.118631 -0.322729 18.035565 -0.105803 -0.292155 23.256529 -0.000000 0.000003 0.000001 -87.868533 -8.438053 29.175553 91.327252 1.488245 -11.933063 11.535407 -13.336332 0.102671 -21.760578 0.549916 1.148090 0.000001 0.000001 0.000000 -66.514964 5.462123 11.751810 72.339572 -6.449464 0.319598 -28.559222 2.564359 0.807166 -1.227802 -0.998758 0.291614 0.000000 -0.000001 -0.000000 
-0.756979 68.926086 0.361101 27.388977 -32.624050 11.732940 30.802603 0.371472 -4.226613 -2.287090 -5.164031 1.402332 -1.939038 -5.042273 2.127755 -8.936265 18.681146 -0.485747 -18.500819 29.497217 -2.925641 0.000001 -0.000000 -0.000000 12.471822 -20.542035 21.683559 -33.619362 -1.896047 -6.585910 -27.536685 -51.113396 0.019602 0.740663 -0.534121 10.879879 13.092778 -1.422815 11.091826 -0.165860 0.315879 -32.613778 -0.139803 0.309121 -33.785046 -0.000001 -0.000001 0.000002 -4.212049 -7.549063 8.222250 3.478441 20.077374 -1.638264 0.786870 1.103916 2.560100 0.000001 -0.000001 -0.000000 8.889188 5.033051 6.184454 -92.742392 -39.328458 -15.632333 61.152569 139.524987 -38.298643 -0.406124 14.557845 -19.939755 -3.040306 9.634388 -11.179119 2.573747 -17.699421 2.601327 3.647764 -13.872665 -8.443279 0.000001 -0.000003 0.000002 19.498238 11.555787 -13.645728 -0.118363 -0.322985 18.390687 -0.104098 -0.292066 23.695260 -0.000000 -0.000000 -0.000000 -81.900177 -2.801435 27.313119 98.931315 -1.197026 -9.462935 7.693844 -11.985579 -1.259834 -37.292621 -1.761668 5.288186 0.000000 0.000000 -0.000000 -69.072146 2.202227 13.794437 68.808282 -5.900069 -0.409227 -22.457408 3.070217 -1.126288 -1.225771 -0.998165 0.252641 0.000000 -0.000000 0.000000 
-0.434367 69.158623 -3.361038 27.641723 -32.644606 10.960011 30.572726 0.766900 -2.364619 -2.501402 -5.199598 1.190103 -2.208950 -5.075679 1.947112 -7.957668 17.998305 -0.730614 -18.289425 29.809753 -3.666483 -0.000000 -0.000000 -0.000000 11.993159 -20.705416 20.805185 -33.396391 -1.879938 -6.663649 -25.357975 -50.466762 1.316959 1.290218 -1.187621 12.126850 13.091021 -1.462073 10.574015 -0.163884 0.316930 -34.359393 -0.134192 0.315447 -35.579593 -0.000003 -0.000000 0.000000 -4.212058 -7.549024 8.222267 3.478458 20.077353 -1.638309 0.697050 0.786733 2.408105 -0.000002 0.000002 -0.000001 8.487312 5.182813 5.987911 -90.758925 -40.012717 -14.684342 60.056276 139.037230 -38.234453 -1.052857 14.682742 -20.024593 -3.215733 9.607952 -11.841584 2.654113 -17.907918 2.525155 4.015776 -14.595479 -8.646048 0.000001 -0.000001 -0.000001 19.667458 11.659656 -12.961468 -0.117984 -0.323354 18.803229 -0.102171 -0.291847 24.203894 -0.000000 -0.000005 0.000001 -69.922224 1.143196 24.423430 100.487362 -4.904440 -10.284019 5.190702 -11.534978 -4.456306 -49.905231 -8.820755 11.994727 0.000000 0.000001 0.000000 -71.393679 -0.564082 14.985056 65.542809 -4.860874 -0.711481 -16.886586 3.242933 -1.837394 -1.358092 -0.996131 -0.023189 -0.000000 0.000000 -0.000000 
-0.089555 69.479568 -6.888306 27.929419 -32.334846 10.401214 29.787828 0.977204 -0.013473 -2.542286 -5.380903 0.673623 -2.322710 -5.284298 1.462541 -7.242426 17.266150 -0.681791 -18.040729 30.044301 -4.145907 -0.000000 -0.000000 0.000000 11.444759 -20.841709 19.976804 -33.351653 -1.748946 -6.822306 -24.378352 -50.392562 1.876391 1.666308 -1.174214 12.441022 13.082898 -1.502937 10.033875 -0.161804 0.324063 -36.187022 -0.128515 0.321951 -37.466060 0.000000 -0.000001 0.000000 -4.212074 -7.549050 8.222255 3.478460 20.077397 -1.638305 0.590673 0.404883 2.226489 0.000003 -0.000001 -0.000000 7.992422 5.496833 6.041488 -89.372096 -40.340132 -14.616957 59.091580 138.507057 -38.079657 -1.743138 14.332727 -20.785732 -3.400222 9.581435 -12.551029 2.740137 -18.131736 2.443677 4.419407 -15.370653 -8.856425 0.000001 0.000004 -0.000002 19.861589 11.767512 -12.231621 -0.117519 -0.323769 19.242463 -0.100122 -0.291620 24.748036 -0.000000 -0.000003 0.000001 -56.458876 3.990247 19.387137 96.811101 -9.469800 -13.161036 1.598156 -10.165162 -3.825366 -51.071432 -16.342898 19.637914 -0.000000 -0.000003 0.000001 -72.934549 -3.402845 15.648556 61.623777 -3.695098 -1.250147 -11.394753 3.183330 -2.484877 -1.155707 -0.998384 0.291719 -0.000000 0.000001 -0.000000 
